# xmcd
#
# Track frame offsets:
#	150
#	11756
#	26538
#	39702
#	49847
#	64027
#	83365
#	95710
#	113941
#	127866
#	142563
#	158379
#	181982
#	201489
#	212549
#	228260
#	242040
#	254871
#	271989
#	282950
#	297039
#
# Disc length: 4222
#
# Revision: 1
# Processed by: cddbd v1.5.1PL0 Copyright (c) Steve Scherf et al.
# Submitted via: EasyCDDAExtractor 4.6.0.1
# Normalized: r0:TDELIM( - )
#
DISCID=22107c15
DTITLE=Various Artist - The Lady Sings the Blues
DYEAR=1994
DGENRE=Blues
TTITLE0=Erma Franklyn - (Take a little) Piece of my Heart
TTITLE1=Peggy Lee - Fever
TTITLE2=Julie London - Cry me a River
TTITLE3=Dinah Washington - Call me Irresponsible
TTITLE4=The Commitments (vocal by Maria Doyle) - I never loved a Man
TTITLE5=Gladys Knights and The Pips - Help me Make it Through the Night
TTITLE6=Aretha Franklin - Today I sing the Blues
TTITLE7=Ruby Turner - I'd rather Go Blind
TTITLE8=Ella Fitzgerald - Basin Street Blues
TTITLE9=Sarah Vaughan - Black Coffee
TTITLE10=Dorothy Moore - Misty Blue
TTITLE11=Tina Turner - Undercover Agent for the Blues
TTITLE12=Annie Lennox - Cold
TTITLE13=Sinead O'Connor - Why Don't you do Right
TTITLE14=Joan Armatrading - Show some Emotion
TTITLE15=Etta James - I Just want to Make Love to You
TTITLE16=Dionne Warwick - Walk on By
TTITLE17=Nina Simone - Mr Bojangles
TTITLE18=Timi Yuro - Hurt
TTITLE19=Billie Holiday - God Bless the Child
TTITLE20=Big Brother and The Holding Company - Turtle Blues
EXTD=
EXTT0=Erma Franklin\n
EXTT1=Peggy Lee\n
EXTT2=Julie London\n
EXTT3=Dinah Washington\n
EXTT4=Commitments\n
EXTT5=Gladys Night and the Pips\n
EXTT6=Aretha Franklin\n
EXTT7=Ruby Turner\n
EXTT8=Ella Fitzgerald\n
EXTT9=Sarah Vaughn\n
EXTT10=Dorothy Moore\n
EXTT11=Tina Turner\n
EXTT12=Annie Lennox\n
EXTT13=Sinead O'Connor\n
EXTT14=Joan Armatrading\n
EXTT15=Etta James\n
EXTT16=Dionne Warwick\n
EXTT17=Nina Simone\n
EXTT18=Timi Yuro\n
EXTT19=Billie Holiday\n
EXTT20=Big Brother and The Holding Company\n
PLAYORDER=
